# xmcd
#
# Track frame offsets: 
#        150
#        10628
#        21218
#        32898
#        43551
#        53495
#        64612
#        74226
#        85765
#        95027
#        106648
#        117584
#        128860
#        138631
#        147773
#        157910
#        172254
#        187227
#        198162
#        206939
#        220218
#        231345
#        241672
#        250112
#        261730
#        272720
#        285419
#        306377
#
# Disc length: 4193 seconds
#
# Revision: 2
# Processed by: cddbd v1.5.2PL0 Copyright (c) Steve Scherf et al.
# Submitted via: ExactAudioCopy v0.99pb5
#
DISCID=a9105f1c
DTITLE=Various Artist - Swamp Pop by the Bayou
DYEAR=2014
DGENRE=Rhythm and Blues
TTITLE0=Vince Anthony with The Blue Notes - Sneakin' Home
TTITLE1=Jay Richards and The Blues Kings - Hear Love Knockin'
TTITLE2=Bobby Webb and The Jets - Tell Me
TTITLE3=Warren Storm - Oh Oh Baby
TTITLE4=Rocket Morgan - Too High a Price (To Pay for Love)
TTITLE5=Jivin' Gene and The Jokers - Breaking Up is Hard to Do
TTITLE6=Frankie Lowery - I Ain't Had No Sleep
TTITLE7=Johnny Bersin and The Dial-Tones - I Ran Around
TTITLE8=John Fred - Good Lovin'
TTITLE9=Ronnie Bennett - In This Letter
TTITLE10=Tommy Strange - Lonely Lonely Heart
TTITLE11=Frankie Lowery - She's Walking Toward Me
TTITLE12=Rocket Morgan - Did You Leave Something Else (For Me)
TTITLE13=Charles Page - No Season on Squeezing
TTITLE14=Johnnie Allan and The Krazy Kats - The Convict and the Rose
TTITLE15=Doug Charles and The Boogie Kings - You're on My Mind
TTITLE16=Warren Storm - This Life I Live
TTITLE17=Guitar Jeff - You Jezebel
TTITLE18=George - I'm Ready
TTITLE19=Tommy Strange - What Am I to Do
TTITLE20=Peto Marlow and The Rhythm Kings - Operator (This is Elbert)
TTITLE21=Donnie Williams and The Blue Notes - Cry Your Heart Out
TTITLE22=Gene Terry With The Down Beats - What Can I Do Still Love You
TTITLE23=Warren Storm - I'm Leaving You
TTITLE24=Bee Arnold - Deedle Dee Deedle Dee
TTITLE25=Buck Rogers and His Jets - Rose Marie
TTITLE26=Rocket Morgan - Walkin' Home
TTITLE27=John Fred and The Playboys - Down in New Orleans
EXTD=
EXTT0=
EXTT1=
EXTT2=
EXTT3=
EXTT4=
EXTT5=
EXTT6=
EXTT7=
EXTT8=
EXTT9=
EXTT10=
EXTT11=
EXTT12=
EXTT13=
EXTT14=
EXTT15=
EXTT16=
EXTT17=
EXTT18=
EXTT19=
EXTT20=
EXTT21=
EXTT22=
EXTT23=
EXTT24=
EXTT25=
EXTT26=
EXTT27=
PLAYORDER=
